<?xml version="1.0" ?><svg style="enable-background:new 0 0 24 24;" version="1.1" viewBox="0 0 24 24" xml:space="preserve" xmlns="http://www.w3.org/2000/svg" xmlns:xlink="http://www.w3.org/1999/xlink"><style type="text/css">
	.st0{display:none;}
	.st1{display:inline;}
	.st2{opacity:0.2;fill:none;stroke:#000000;stroke-width:5.000000e-02;stroke-miterlimit:10;}
</style><g class="st0" id="grid_system"/><g id="_icons"><path d="M22,12c0-0.9-0.4-1.7-1.1-2.1l-1.8-1.2c-0.5-0.3-1.1-0.2-1.4,0.3c-0.3,0.5-0.2,1.1,0.3,1.4l1.8,1.2C20,11.7,20,11.9,20,12   s0,0.3-0.2,0.5l-2,1.4c-1.8,1.2-4,1.8-6.2,1.7c-0.5,0-1,0.4-1,0.9c0,0.6,0.4,1,0.9,1c0.2,0,0.4,0,0.6,0c2.4,0,4.7-0.7,6.8-2.1   l2-1.3C21.6,13.7,22,12.9,22,12z"/><path d="M3.1,14.1l2,1.4C5.6,15.7,6,16,6.4,16.2l-1.1,1.1c-0.4,0.4-0.4,1,0,1.4C5.5,18.9,5.7,19,6,19s0.5-0.1,0.7-0.3l2.1-2.1   l1.4-1.4l4.8-4.8l1.4-1.4l2.1-2.1c0.4-0.4,0.4-1,0-1.4s-1-0.4-1.4,0L15.6,7C12.1,5.9,8.2,6.5,5.2,8.5l-2,1.3C2.4,10.3,2,11.1,2,12   S2.4,13.7,3.1,14.1z M12,9.6c0.3,0,0.6,0.1,0.9,0.2l-3.1,3.1c-0.1-0.3-0.2-0.6-0.2-0.9C9.6,10.7,10.7,9.6,12,9.6z M4.2,11.5l2-1.4   C7.1,9.7,7.9,9.3,8.8,9C8,9.8,7.6,10.8,7.6,12c0,0.8,0.2,1.6,0.7,2.3l-0.4,0.4c-0.6-0.2-1.1-0.5-1.6-0.9l-2-1.4C4,12.3,4,12.1,4,12   S4,11.7,4.2,11.5z"/></g></svg>